 http://img600.imageshack.us/img600/4651/09d51c2ef218c549ebb18b6.jpg

Country.......: USA
Genre.........: Sci-Fi, Erotic
Date release..: 10.04.2007 [World]
Director......: Jim Wynorski
Writers.......: Jim Wynorski
Duration......: 80 min.
More..........: http://www.imdb.com/title/tt1014796

Pilot :
Young married couple Rob and Laura move to the peaceful, friendly town of Breastford and right away are made to feel at home by the welcoming members of the Breastford Womens Association. Rob almost immediately has sex with these three lovelies (as does Laura), but they soon realize that something is amiss, and they discover the reason: Doc Brady, the town's mayor, has invented a device that, at the push of a button, turns women into insatiable, sex-crazed robots.

Cats :
Glori Anne Gilbert   	 ...  	Laura
Frankie Cullen 	... 	Rob
Taylor Wayne 	... 	Jackie
Frank Harper 	... 	Doc Brady
Barbie Bennett 	... 	Torrie
Friday 	Friday 	... 	Millie
Sara Maglaughlin 	... 	Marla
Monique Parent 	... 	Taimie (as Dylan Bailey)
Monica Sweetheart 	... 	Nurse (as Monika Rakocyova) 

Data Technical :
!!! SAMPLE !!!
Audio.....: English
Subtitles.: English .srt, Spanish .srt
Format                           : AVI
Format/Info                      : Audio Video Interleave
File size                        : 746 MiB
Duration                         : 1h 19mn
Overall bit rate                 : 1 308 Kbps
Writing application              : VirtualDubMod 1.5.4.1 (build 2178/release)
Writing library                  : VirtualDubMod build 2178/release
Video
ID                               : 0
Format                           : MPEG-4 Visual
Format profile                   : Advanced Simple@L5
Format settings, BVOP            : Yes
Format settings, QPel            : No
Format settings, GMC             : No warppoints
Format settings, Matrix          : Default (H.263)
Muxing mode                      : Packed bitstream
Codec ID                         : XVID
Codec ID/Hint                    : XviD
Duration                         : 1h 19mn
Bit rate                         : 1 192 Kbps
Width                            : 512 pixels
Height                           : 288 pixels
Display aspect ratio             : 16:9
Frame rate                       : 23.976 fps
Color space                      : YUV
Chroma subsampling               : 4:2:0
Bit depth                        : 8 bits
Scan type                        : Progressive
Bits/(Pixel*Frame)               : 0.337
Stream size                      : 680 MiB (91%)
Writing library                  : XviD 1.2.0.dev47 (UTC 2006-11-01)
Audio
ID                               : 1
Format                           : MPEG Audio
Format version                   : Version 1
Format profile                   : Layer 3
Mode                             : Joint stereo
Mode extension                   : MS Stereo
Codec ID                         : 55
Codec ID/Hint                    : MP3
Duration                         : 1h 19mn
Bit rate mode                    : Variable
Bit rate                         : 103 Kbps
Nominal bit rate                 : 128 Kbps
Channel(s)                       : 2 channels
Sampling rate                    : 48.0 KHz
Stream size                      : 58.6 MiB (8%)
Alignment                        : Aligned on interleaves
Interleave, duration             : 24 ms (0.58 video frame)
Interleave, preload duration     : 500 ms
Writing library                  : LAME3.97 
Encoding settings                : -m j -V 4 -q 2 -lowpass 17 --abr 128

Screen : 
http://img835.imageshack.us/img835/3081/thebreastfordwives2007s.jpg 
http://img853.imageshack.us/img853/3081/thebreastfordwives2007s.jpg 
http://img638.imageshack.us/img638/3081/thebreastfordwives2007s.jpg 
http://img195.imageshack.us/img195/3081/thebreastfordwives2007s.jpg 
http://img717.imageshack.us/img717/3081/thebreastfordwives2007s.jpg